<?xml version="1.0" standalone="no"?>
<!DOCTYPE svg PUBLIC "-//W3C//DTD SVG 20010904//EN"
 "http://www.w3.org/TR/2001/REC-SVG-20010904/DTD/svg10.dtd">
<svg version="1.0" xmlns="http://www.w3.org/2000/svg"
 width="800.000000pt" height="800.000000pt" viewBox="0 0 800.000000 800.000000"
 preserveAspectRatio="xMidYMid meet">
<metadata>
Created by potrace 1.14, written by Peter Selinger 2001-2017
</metadata>
<g transform="translate(0.000000,800.000000) scale(0.100000,-0.100000)"
fill="#000000" stroke="none">
<path d="M3880 7103 c-29 -11 -66 -38 -106 -77 -71 -72 -94 -126 -94 -226 0
-100 23 -154 94 -226 72 -71 126 -94 226 -94 100 0 154 23 226 94 71 72 94
126 94 226 0 100 -23 154 -94 226 -43 42 -76 66 -110 77 -62 21 -176 21 -236
0z"/>
<path d="M267 5999 c-72 -11 -131 -45 -186 -104 -58 -65 -81 -124 -81 -215 0
-100 23 -154 94 -226 70 -69 134 -97 226 -97 135 0 261 88 305 213 20 56 19
164 -2 226 -23 69 -120 165 -188 186 -68 22 -111 26 -168 17z"/>
<path d="M7627 5999 c-72 -11 -131 -45 -186 -104 -58 -65 -81 -124 -81 -215 0
-100 23 -154 94 -226 70 -69 134 -97 226 -97 92 0 156 28 226 97 71 72 94 126
94 226 0 100 -23 154 -94 226 -81 81 -169 110 -279 93z"/>
<path d="M3936 5713 c-32 -65 -281 -579 -553 -1143 -273 -564 -499 -1029 -504
-1034 -4 -5 -146 70 -316 166 -169 97 -706 401 -1191 677 -486 277 -886 500
-889 497 -6 -5 39 -193 347 -1456 77 -316 157 -647 179 -735 46 -189 296
-1217 379 -1560 l59 -240 2549 0 2548 0 22 90 c20 86 237 969 460 1875 58 234
127 515 154 625 27 110 103 418 168 685 169 683 175 710 169 716 -3 3 -537
-297 -1188 -667 -650 -369 -1188 -672 -1196 -673 -9 -1 -215 414 -568 1144
-305 630 -559 1146 -563 1148 -5 1 -35 -50 -66 -115z"/>
</g>
</svg>
